<?xml version="1.0" standalone="no"?>
<!DOCTYPE svg PUBLIC "-//W3C//DTD SVG 20010904//EN"
 "http://www.w3.org/TR/2001/REC-SVG-20010904/DTD/svg10.dtd">
<svg version="1.0" xmlns="http://www.w3.org/2000/svg"
 width="1000.000000pt" height="1000.000000pt" viewBox="0 0 1000.000000 1000.000000"
 preserveAspectRatio="xMidYMid meet">
<metadata>
Created by potrace 1.14, written by Peter Selinger 2001-2017
</metadata>
<g transform="translate(0.000000,1000.000000) scale(0.100000,-0.100000)"
fill="#000000" stroke="none">
<path d="M1000 6593 l0 -400 128 -12 c220 -20 362 -58 551 -147 180 -85 297
-169 447 -318 149 -150 233 -267 318 -447 85 -181 126 -328 145 -523 7 -71 11
-472 11 -1133 l0 -1023 400 0 400 0 1 1043 c0 573 3 1062 5 1087 32 313 139
592 319 832 87 116 263 282 382 361 107 71 287 161 393 196 194 63 432 90 628
72 220 -20 362 -58 551 -147 161 -76 296 -169 424 -293 289 -279 449 -613 491
-1021 2 -25 5 -514 5 -1087 l1 -1043 400 0 400 0 0 1024 c0 621 4 1065 10
1127 38 381 189 700 464 975 150 149 267 233 447 318 189 89 331 127 552 147
l127 12 0 400 0 400 -135 -7 c-689 -33 -1349 -384 -1775 -944 -45 -59 -86
-107 -90 -107 -5 0 -32 32 -60 70 -335 450 -801 768 -1324 906 -235 61 -337
73 -616 73 -279 0 -384 -12 -616 -73 -523 -138 -989 -456 -1324 -906 -28 -38
-55 -70 -60 -70 -4 0 -45 48 -90 107 -426 560 -1089 912 -1777 945 l-133 6 0
-400z"/>
</g>
</svg>
